<svg xmlns="http://www.w3.org/2000/svg" version="1.1" xmlns:xlink="http://www.w3.org/1999/xlink" xmlns:svgjs="http://svgjs.dev/svgjs" width="1440" height="560" preserveAspectRatio="none" viewBox="0 0 1440 560"><g mask="url(&quot;#SvgjsMask1099&quot;)" fill="none"><rect width="1440" height="560" x="0" y="0" fill="rgba(248, 249, 250, 1)"></rect><rect width="348" height="348" clip-path="url(&quot;#SvgjsClipPath1100&quot;)" x="814.72" y="290.02" fill="url(&quot;#SvgjsPattern1101&quot;)" transform="rotate(344.69, 988.72, 464.02)"></rect><rect width="84" height="84" clip-path="url(&quot;#SvgjsClipPath1102&quot;)" x="1299.07" y="94.19" fill="url(&quot;#SvgjsPattern1103&quot;)" transform="rotate(170.86, 1341.07, 136.19)"></rect><circle r="85.53613649635969" cx="381.18" cy="387.37" stroke="rgba(94, 188, 221, 1)" stroke-width="1" stroke-dasharray="3, 3"></circle><rect width="60" height="60" clip-path="url(&quot;#SvgjsClipPath1104&quot;)" x="1336.12" y="308.22" fill="url(&quot;#SvgjsPattern1105&quot;)" transform="rotate(35.39, 1366.12, 338.22)"></rect><rect width="86.6" height="86.6" clip-path="url(&quot;#SvgjsClipPath1106&quot;)" x="841.46" y="153.06" fill="url(&quot;#SvgjsPattern1107&quot;)" transform="rotate(244.34, 884.76, 196.36)"></rect><rect width="252" height="252" clip-path="url(&quot;#SvgjsClipPath1108&quot;)" x="951.31" y="313.3" fill="url(&quot;#SvgjsPattern1109&quot;)" transform="rotate(20.43, 1077.31, 439.3)"></rect><path d="M59.28 201.22L71.21 196.56 78.37 207.18 90.3 202.53 97.46 213.14 109.39 208.49 116.55 219.11M56.89 208.85L68.82 204.2 75.98 214.82 87.91 210.16 95.07 220.78 107 216.13 114.16 226.74" stroke="rgba(94, 188, 221, 1)" stroke-width="1" stroke-dasharray="4, 4"></path><rect width="324" height="324" clip-path="url(&quot;#SvgjsClipPath1110&quot;)" x="317.74" y="-146.14" fill="url(&quot;#SvgjsPattern1111&quot;)" transform="rotate(167.94, 479.74, 15.86)"></rect><rect width="336" height="336" clip-path="url(&quot;#SvgjsClipPath1112&quot;)" x="784.47" y="87.93" fill="url(&quot;#SvgjsPattern1113&quot;)" transform="rotate(147.25, 952.47, 255.93)"></rect><circle r="46.666666666666664" cx="556" cy="293.61" fill="rgba(234, 225, 61, 1)"></circle><rect width="312" height="312" clip-path="url(&quot;#SvgjsClipPath1114&quot;)" x="111.74" y="80.88" fill="url(&quot;#SvgjsPattern1115&quot;)" transform="rotate(308.86, 267.74, 236.88)"></rect><rect width="84" height="84" clip-path="url(&quot;#SvgjsClipPath1116&quot;)" x="685.49" y="27.41" fill="url(&quot;#SvgjsPattern1117&quot;)" transform="rotate(234.65, 727.49, 69.41)"></rect></g><defs><mask id="SvgjsMask1099"><rect width="1440" height="560" fill="#ffffff"></rect></mask><pattern x="0" y="0" width="6" height="6" patternUnits="userSpaceOnUse" id="SvgjsPattern1101"><path d="M0 6L3 0L6 6" stroke="rgba(240, 145, 0, 1)" fill="none"></path></pattern><clipPath id="SvgjsClipPath1100"><circle r="87" cx="988.72" cy="464.02"></circle></clipPath><pattern x="0" y="0" width="6" height="6" patternUnits="userSpaceOnUse" id="SvgjsPattern1103"><path d="M3 1L3 5M1 3L5 3" stroke="rgba(234, 225, 61, 1)" fill="none" stroke-width="1.96"></path></pattern><clipPath id="SvgjsClipPath1102"><circle r="21" cx="1341.07" cy="136.19"></circle></clipPath><pattern x="0" y="0" width="6" height="6" patternUnits="userSpaceOnUse" id="SvgjsPattern1105"><path d="M3 1L3 5M1 3L5 3" stroke="rgba(240, 145, 0, 1)" fill="none" stroke-width="1.75"></path></pattern><clipPath id="SvgjsClipPath1104"><circle r="15" cx="1366.12" cy="338.22"></circle></clipPath><pattern x="0" y="0" width="8.66" height="8.66" patternUnits="userSpaceOnUse" id="SvgjsPattern1107"><path d="M0 8.66L4.33 0L8.66 8.66" stroke="rgba(94, 188, 221, 1)" fill="none"></path></pattern><clipPath id="SvgjsClipPath1106"><circle r="21.65" cx="884.76" cy="196.36"></circle></clipPath><pattern x="0" y="0" width="252" height="6" patternUnits="userSpaceOnUse" id="SvgjsPattern1109"><rect width="252" height="3" x="0" y="0" fill="rgba(240, 145, 0, 1)"></rect><rect width="252" height="3" x="0" y="3" fill="rgba(0, 0, 0, 0)"></rect></pattern><clipPath id="SvgjsClipPath1108"><circle r="63" cx="1077.31" cy="439.3"></circle></clipPath><pattern x="0" y="0" width="324" height="6" patternUnits="userSpaceOnUse" id="SvgjsPattern1111"><rect width="324" height="3" x="0" y="0" fill="rgba(234, 225, 61, 1)"></rect><rect width="324" height="3" x="0" y="3" fill="rgba(0, 0, 0, 0)"></rect></pattern><clipPath id="SvgjsClipPath1110"><circle r="81" cx="479.74" cy="15.86"></circle></clipPath><pattern x="0" y="0" width="336" height="6" patternUnits="userSpaceOnUse" id="SvgjsPattern1113"><rect width="336" height="3" x="0" y="0" fill="rgba(94, 188, 221, 1)"></rect><rect width="336" height="3" x="0" y="3" fill="rgba(0, 0, 0, 0)"></rect></pattern><clipPath id="SvgjsClipPath1112"><circle r="84" cx="952.47" cy="255.93"></circle></clipPath><pattern x="0" y="0" width="312" height="6" patternUnits="userSpaceOnUse" id="SvgjsPattern1115"><rect width="312" height="3" x="0" y="0" fill="rgba(94, 188, 221, 1)"></rect><rect width="312" height="3" x="0" y="3" fill="rgba(0, 0, 0, 0)"></rect></pattern><clipPath id="SvgjsClipPath1114"><circle r="78" cx="267.74" cy="236.88"></circle></clipPath><pattern x="0" y="0" width="6" height="6" patternUnits="userSpaceOnUse" id="SvgjsPattern1117"><path d="M3 1L3 5M1 3L5 3" stroke="rgba(94, 188, 221, 1)" fill="none" stroke-width="1.18"></path></pattern><clipPath id="SvgjsClipPath1116"><circle r="21" cx="727.49" cy="69.41"></circle></clipPath></defs></svg>